<?xml version="1.0" encoding="UTF-8"?>
<svg viewBox="0 0 392 330" xmlns="http://www.w3.org/2000/svg">
<defs>
<style>.cls-1{fill:none;stroke:#231f20;}.cls-1,.cls-10,.cls-11,.cls-12,.cls-13,.cls-14,.cls-15,.cls-16,.cls-17,.cls-2,.cls-4,.cls-5,.cls-6,.cls-7,.cls-8,.cls-9{stroke-miterlimit:10;}.cls-2{fill:#fff;stroke:#020202;stroke-width:2px;}.cls-3,.cls-7{fill:#ed1c24;}.cls-4{fill:#ffde17;}.cls-10,.cls-11,.cls-12,.cls-13,.cls-14,.cls-15,.cls-16,.cls-17,.cls-4,.cls-5,.cls-6,.cls-7,.cls-8,.cls-9{stroke:#fff;}.cls-4,.cls-5,.cls-6,.cls-7{stroke-width:3px;}.cls-5{fill:#00a14b;}.cls-6{fill:#21409a;}.cls-10,.cls-11,.cls-12,.cls-13,.cls-14,.cls-15,.cls-16,.cls-17,.cls-8,.cls-9{stroke-width:0.5px;}.cls-8{fill:url(#linear-gradient);}.cls-9{fill:url(#linear-gradient-2);}.cls-10{fill:url(#linear-gradient-3);}.cls-11{fill:url(#linear-gradient-4);}.cls-12{fill:url(#linear-gradient-5);}.cls-13{fill:url(#linear-gradient-6);}.cls-14{fill:url(#linear-gradient-7);}.cls-15{fill:url(#linear-gradient-8);}.cls-16{fill:url(#linear-gradient-9);}.cls-17{fill:url(#linear-gradient-10);}</style>
</defs>
<title>Untitled-3 [Recovered]</title>
<g>
<title>background</title>
<rect x="-1" y="-1" width="394" height="332" fill="none"/>
</g>
<g>
<title>Layer 1</title>
<rect class="cls-2" x="64.06" y="1.7" width="326.2" height="326.2" rx="14.94" ry="14.94"/>
<path class="cls-3" d="m77.73 246.38a3 3 0 0 1 -0.67 -1.63c-0.18-1.81 0.93-5.7 1.5-8.39 0.75-3.55 0.31-3.18 1.78-11 1.13-6.07 1.13-8.14 0-15.6-1.33-8.69-3.66-9.88-3.51-13.63v-0.11a2.78 2.78 0 0 1 4.65 -2c3 2.78 10.38 9.42 14.18 11.59 4.86 2.76 7.85 5.53 15.51 8.1s3 1.58 11.41 3.55 12.89 3 19.62 4.35 24.11 2.56 29 2 34-3.76 40.66-4.35 33.73-4.14 39.9-4.73 30.09-3.16 41.3-3.16 42.62 0.39 51.4 1.58 29 6.51 31.59 8.29 4.11 2.28 4.86 5.29-1.87 6.17-3.18 14.07-2.62 9.28-2.24 15.8a122.05 122.05 0 0 0 2.05 16.78c1.31 7.71-27.28-5.13-36.44-5.92a260.51 260.51 0 0 0 -27.85 -1.19c-9.53 0.2-16.07 0.79-28.41 1.58s-39.44 4.94-49.34 6.13-24.86 3-36.08 3.75-21.12 2.17-32 2-12.33 0.2-20.74-1-16.08-2.57-21.5-3.76-16.07-5.33-21.49-7.9a100.63 100.63 0 0 1 -17.41 -10.96c-3.49-2.56-7.14-7.75-8.55-9.53z"/>
<rect class="cls-4" transform="rotate(-11.06 73.7 181.24)" x="16.7" y="101.94" width="114" height="158.59" rx="1.7" ry="1.7"/>
<rect class="cls-5" transform="rotate(-5.53 149.64 151.32)" x="92.64" y="72.03" width="114" height="158.59" rx="1.7" ry="1.7"/>
<rect class="cls-6" x="179.28" y="42.78" width="114" height="158.59" rx="1.7" ry="1.7"/>
<rect class="cls-7" transform="rotate(5.53 319.79 96.075)" x="262.79" y="16.78" width="114" height="158.59" rx="1.7" ry="1.7"/>
<path class="cls-8" d="m122.92 254.91a2.69 2.69 0 0 1 -2.59 1.74 8.59 8.59 0 0 1 -1.94 -0.17 4.92 4.92 0 0 1 -2.73 -1.43 9.55 9.55 0 0 1 -0.66 -1.58 5.53 5.53 0 0 1 0 -2.53 21.35 21.35 0 0 0 -3.33 -0.53c0 0.23 0 0.57-0.06 1a6.76 6.76 0 0 1 -1.46 2.92 3.64 3.64 0 0 1 -3.39 0.86 10.83 10.83 0 0 1 -2.36 -0.86l-0.06-0.09q-2.77-2.16-1.53-8.22c0.05-0.27 0.2-0.9 0.45-1.88a54.33 54.33 0 0 1 2.89 -8.72 22.17 22.17 0 0 1 5.58 -7.41 7.49 7.49 0 0 1 6.78 -1.52q4.35 0.88 6 4.07a9.76 9.76 0 0 1 1.08 4.12 55.36 55.36 0 0 1 -0.76 13.88 34 34 0 0 1 -1.91 6.35zm-7.19-11.44a56.22 56.22 0 0 0 1.52 -9.26c-0.13-0.2-0.4-0.19-0.8 0-0.73 2-1.31 3.61-1.71 4.87a23 23 0 0 0 -1.05 3.79 0.65 0.65 0 0 0 0.54 0.53 5.52 5.52 0 0 0 0.77 0 6.25 6.25 0 0 1 0.73 0.07z"/>
<path class="cls-9" d="m146.25 256.78l-0.12 0.5c0 0.25-0.06 0.42-0.08 0.52-0.82 3.51-2.72 5.58-5.68 6.2a11.49 11.49 0 0 1 -5 -0.08 8.33 8.33 0 0 1 -5.14 -3.22q-3.62-5.07-1.87-12.32a40 40 0 0 1 2.45 -7 14.28 14.28 0 0 1 3.83 -5.15 6.92 6.92 0 0 1 3.22 -1.48 9.52 9.52 0 0 1 4 0.09 8.79 8.79 0 0 1 4.16 2.29 9 9 0 0 1 2.45 4.1 6.24 6.24 0 0 1 0.06 3 5 5 0 0 1 -1.36 2.54 3.57 3.57 0 0 1 -3 1.23 5.09 5.09 0 0 1 -4 -3.33 7.67 7.67 0 0 1 0.06 -0.9c0-0.39-0.1-0.62-0.42-0.67l-0.51 0.57q-2.16 7.56-2.2 7.74c-0.16 0.7-0.3 1.39-0.41 2.08a1.46 1.46 0 0 0 0.56 1.54c0.56 0.1 1.66-0.29 3.31-1.17s2.72-1.26 3.23-1.14a3.13 3.13 0 0 1 1.13 0.53 2.91 2.91 0 0 1 1.33 3.53z"/>
<path class="cls-10" d="m166.9 250.64a3.77 3.77 0 0 1 -0.13 1.15 4.17 4.17 0 0 1 -2.25 2.89 3.92 3.92 0 0 1 -3.27 0.4 3 3 0 0 0 -1.08 -0.26 10.08 10.08 0 0 1 -0.75 2.26 1.47 1.47 0 0 0 0.48 1.47 3.86 3.86 0 0 1 2.43 0.52 2.34 2.34 0 0 1 1.22 2.3 4.73 4.73 0 0 1 -1.59 3 8.9 8.9 0 0 1 -3.58 2.06 8.12 8.12 0 0 1 -4.23 0.12 8.72 8.72 0 0 1 -3.5 -1.54 8.11 8.11 0 0 1 -1.64 -2.47q-1-2.79 0.7-10.73a74.59 74.59 0 0 1 3 -10.28c0.8-2.2 1.76-3.54 2.9-4l6.19 0.68a14.63 14.63 0 0 1 3 0.31c1.88 0.4 2.89 1.11 3 2.12a3.9 3.9 0 0 1 -0.06 1.35 3.26 3.26 0 0 1 -1.7 2.3 5 5 0 0 1 -3.44 0.29l-0.79-0.17a4.54 4.54 0 0 0 -0.66 1.66c-0.26 1-0.42 1.56-0.48 1.7a0.89 0.89 0 0 0 0.62 0.81 4.2 4.2 0 0 1 2.83 -0.27 3.77 3.77 0 0 1 2.78 2.33z"/>
<path class="cls-11" d="m208.13 256.75v0.06a9.12 9.12 0 0 1 -3.07 5 9.38 9.38 0 0 1 -5.48 2.11 10.7 10.7 0 0 1 -9.44 -3.82 15.08 15.08 0 0 1 -3.39 -9 22.41 22.41 0 0 1 0.14 -4.61q1.38-9.79 7.88-11.46a7 7 0 0 1 1.25 -0.19 9.9 9.9 0 0 1 5.89 1.57 9.69 9.69 0 0 1 4.07 4.52 31.84 31.84 0 0 1 2.71 9.36 21.35 21.35 0 0 1 -0.54 6.41l-0.02 0.05zm-9.39-2.05l0.15-0.06c0.59-0.16 0.82-1.54 0.64-4.15a19.67 19.67 0 0 0 -0.69 -4.13q-0.53-1.89-1-1.92c-0.55-0.11-1 0.51-1.36 1.87a14.26 14.26 0 0 0 -0.37 4.45c0.17 3.01 1.05 4.33 2.62 3.97l0.01-0.03z"/>
<path class="cls-12" d="m226.32 244.43a4.94 4.94 0 0 1 0.62 1.68 4.58 4.58 0 0 1 -0.73 2.42 3.71 3.71 0 0 1 -2.58 2.38c-0.44 0-1.47 0.19-3.09 0.47a27.31 27.31 0 0 0 0.34 2.8c0.25 1.54 0.39 2.45 0.41 2.72q0.27 4-2.66 4.16a13 13 0 0 1 -3.79 -0.64q-2.53-2.25-3.07-7l-1.48-12.51v-4.12a4.06 4.06 0 0 1 2 -3.33q1.8-1.35 6.8-1.68a14.47 14.47 0 0 1 4.36 0.23 4.44 4.44 0 0 1 2 3.2 3.74 3.74 0 0 1 -1.51 3.56 6.09 6.09 0 0 1 -2 0.84c-1.07 0.37-1.66 0.68-1.76 0.94a10.07 10.07 0 0 1 -0.28 2.47 0.75 0.75 0 0 0 0.53 0.15 7.37 7.37 0 0 0 1.33 -0.39 6.19 6.19 0 0 1 1.26 -0.38 6.93 6.93 0 0 1 3.3 2.03z"/>
<path class="cls-13" d="m263.41 248.19v0.55a4.69 4.69 0 0 1 0 0.52q0 5.42-4.07 7.36a11.3 11.3 0 0 1 -4.93 1.1 8.31 8.31 0 0 1 -5.75 -1.93q-4.7-4.1-4.7-11.54a40.39 40.39 0 0 1 0.74 -7.42 14.34 14.34 0 0 1 2.52 -5.91 6.87 6.87 0 0 1 2.79 -2.18 9.52 9.52 0 0 1 3.94 -0.86 8.79 8.79 0 0 1 4.59 1.26 9 9 0 0 1 3.34 3.41 6.33 6.33 0 0 1 0.75 2.89 5 5 0 0 1 -0.72 2.78 3.6 3.6 0 0 1 -2.66 1.91 5.06 5.06 0 0 1 -4.61 -2.31 7 7 0 0 1 -0.15 -0.89c-0.06-0.4-0.24-0.58-0.56-0.56l-0.37 0.67c-0.22 5.24-0.33 7.93-0.33 8 0 0.72 0 1.42 0.09 2.11a1.46 1.46 0 0 0 0.89 1.37c0.57 0 1.55-0.66 2.94-1.91s2.35-1.86 2.86-1.87a3.28 3.28 0 0 1 1.23 0.26 2.91 2.91 0 0 1 2.17 3.19z"/>
<path class="cls-14" d="m288.08 250.05a2.68 2.68 0 0 1 -1.86 2.51 8.11 8.11 0 0 1 -1.88 0.49 4.81 4.81 0 0 1 -3.05 -0.43 9.53 9.53 0 0 1 -1.15 -1.26 5.64 5.64 0 0 1 -0.83 -2.39 20 20 0 0 0 -3.32 0.62 8.94 8.94 0 0 1 0.29 1 6.83 6.83 0 0 1 -0.4 3.24 3.62 3.62 0 0 1 -2.91 1.94 10.57 10.57 0 0 1 -2.51 0l-0.09-0.06q-3.33-1.11-4.2-7.23c0-0.27-0.1-0.91-0.19-1.92a52.91 52.91 0 0 1 -0.21 -9.18 22 22 0 0 1 2.72 -8.85 7.5 7.5 0 0 1 5.87 -3.71c2.94-0.41 5.28 0.19 7 1.82a9.71 9.71 0 0 1 2.4 3.51 55.14 55.14 0 0 1 3.97 13.32 33.79 33.79 0 0 1 0.35 6.58zm-10.64-8.31a56.67 56.67 0 0 0 -1.68 -9.24c-0.2-0.14-0.44-0.05-0.74 0.3v5.16a25.07 25.07 0 0 0 0.29 3.93 0.66 0.66 0 0 0 0.69 0.31 5.19 5.19 0 0 0 0.73 -0.23 6 6 0 0 1 0.71 -0.23z"/>
<path class="cls-15" d="m310.73 229.51q0.71 4.26 1 8.07 0.94 11.7-2.81 13.46a4.18 4.18 0 0 1 -1.35 0.34 10.23 10.23 0 0 1 -2.43 -0.18q-1.93-0.88-6.62-11.4a24.66 24.66 0 0 1 1.12 5.58 11.14 11.14 0 0 1 -0.49 5 3.41 3.41 0 0 1 -1.34 1.58 3.25 3.25 0 0 1 -2 0.67c-2.06 0-3.56-1.17-4.48-3.4a24.69 24.69 0 0 1 -1.31 -7q-0.76-9.36-0.25-12.64a6.92 6.92 0 0 1 2.38 -4.18 4.55 4.55 0 0 1 2.66 -1.1 5.16 5.16 0 0 1 1.65 0.12q2.24 1 4.76 6.5a46.13 46.13 0 0 1 2 5.3c-0.38-1.61-0.7-3-1-4.24a39.36 39.36 0 0 1 -0.83 -4.73 4.58 4.58 0 0 1 0.72 -3.07 3.81 3.81 0 0 1 3 -1.62c2.39-0.19 4 1 4.79 3.63a33.61 33.61 0 0 1 0.83 3.31z"/>
<path class="cls-16" d="m333.45 237.2a19.18 19.18 0 0 1 -3 9 12.77 12.77 0 0 1 -8.59 5.86 12.4 12.4 0 0 1 -5.13 -1.15c-1.49-0.72-2.23-1.54-2.22-2.49q0.21-9.91 1-19c0.2-2.24 0.39-3.83 0.57-4.79q1.11-1.9 6.13-1.46a18 18 0 0 1 5 1.11 11.39 11.39 0 0 1 3.89 3.92 14.24 14.24 0 0 1 2.35 9zm-8.94-4.14a1.41 1.41 0 0 0 -0.94 -0.72 1.48 1.48 0 0 0 -0.57 0.1l-0.38 0.12a74.26 74.26 0 0 1 -0.26 8.76 5.66 5.66 0 0 0 2 -2 6.46 6.46 0 0 0 1 -2.85 5 5 0 0 0 -0.85 -3.41z"/>
<path class="cls-17" d="m337.94 224.28a4.22 4.22 0 0 1 2.06 0 3.49 3.49 0 0 1 2.82 2.5 9.35 9.35 0 0 1 0.8 3.53c0.16 2.16 0.28 3.34 0.34 3.53q3.12-6.43 5.73-8a5.74 5.74 0 0 1 2.22 0.08 4 4 0 0 1 2.51 1.52 4.73 4.73 0 0 1 1 4.59 22.68 22.68 0 0 1 -3.31 6.05q-1.36 1.83-4.38 5.29c-0.24 1-0.59 2.56-1.08 4.58a12.58 12.58 0 0 1 -1.83 4.26 5.25 5.25 0 0 1 -3.8 2.18c-0.4 0-0.68-0.08-0.85-0.11a4.2 4.2 0 0 1 -3.5 -3.19 12.14 12.14 0 0 1 0.35 -3.91l0.48-2.1c0.22-0.86 0.36-1.51 0.44-2q-3.62-11.46-2.65-15.72a3.65 3.65 0 0 1 2.65 -3.08z"/>
</g>
</svg>
